<?xml version="1.0" encoding="utf-8"?>
<!-- Generator: Adobe Illustrator 16.0.0, SVG Export Plug-In . SVG Version: 6.00 Build 0)  -->
<!DOCTYPE svg PUBLIC "-//W3C//DTD SVG 1.1//EN" "http://www.w3.org/Graphics/SVG/1.1/DTD/svg11.dtd">
<svg version="1.1" id="Layer_1" xmlns="http://www.w3.org/2000/svg" xmlns:xlink="http://www.w3.org/1999/xlink" x="0px" y="0px"
	 width="512px" height="512px" viewBox="0 0 512 512" enable-background="new 0 0 512 512" xml:space="preserve">
<g>
	<circle fill="#1D1D1B" cx="390.818" cy="379.263" r="26.006"/>
	<g>
		<circle fill="#1D1D1B" cx="196.5" cy="379.263" r="26.006"/>
		<path fill="#1D1D1B" d="M482.577,107.868c-8.757-3.367-18.584,0.999-21.95,9.756L388.604,304.96H199.07l-72.018-187.336
			c-0.033-0.091-0.091-0.166-0.128-0.257c-0.228-0.56-0.531-1.078-0.813-1.609c-0.249-0.468-0.468-0.958-0.759-1.393
			c-0.27-0.406-0.601-0.763-0.904-1.148c-0.381-0.481-0.742-0.987-1.169-1.418c-0.323-0.324-0.696-0.589-1.045-0.888
			c-0.473-0.41-0.924-0.837-1.438-1.19c-0.448-0.307-0.945-0.539-1.422-0.804c-0.468-0.257-0.917-0.547-1.406-0.759
			c-0.51-0.224-1.061-0.365-1.6-0.539c-0.514-0.162-1.012-0.361-1.542-0.477c-0.477-0.104-0.983-0.128-1.476-0.195
			c-0.626-0.079-1.248-0.178-1.883-0.187c-0.091-0.004-0.178-0.029-0.273-0.029H30.45c-9.379,0-16.983,7.604-16.983,16.983
			s7.604,16.983,16.983,16.983h69.087l72.022,187.333c1.721,4.478,5.142,7.786,9.234,9.52c0.228,0.1,0.477,0.149,0.713,0.24
			c0.779,0.291,1.559,0.564,2.376,0.738c0.39,0.083,0.796,0.1,1.194,0.157c0.697,0.1,1.389,0.199,2.098,0.208
			c0.104,0.008,0.199,0.033,0.303,0.033h212.364c0.149,0,0.299-0.042,0.448-0.042c6.816-0.008,13.235-4.113,15.831-10.854
			l76.21-198.221C495.696,121.057,491.335,111.23,482.577,107.868z"/>
		<g>
			<path fill="#1D1D1B" d="M200.09,149.343c0,8.318-6.742,15.056-15.06,15.056c-8.318,0-15.056-6.738-15.056-15.056
				c0-8.317,6.738-15.055,15.056-15.055C193.348,134.288,200.09,141.026,200.09,149.343z"/>
			<path fill="#1D1D1B" d="M252.616,149.343c0,8.326-6.733,15.06-15.06,15.06c-8.313,0-15.051-6.733-15.051-15.06
				c0-8.313,6.738-15.051,15.051-15.051C245.883,134.292,252.616,141.03,252.616,149.343z"/>
			<path fill="#1D1D1B" d="M308.132,148.236c0,8.326-6.733,15.06-15.06,15.06c-8.317,0-15.051-6.733-15.051-15.06
				c0-8.313,6.733-15.051,15.051-15.051C301.398,133.185,308.132,139.923,308.132,148.236z"/>
			<path fill="#1D1D1B" d="M363.701,148.033c0,8.326-6.733,15.06-15.06,15.06c-8.309,0-15.051-6.734-15.051-15.06
				c0-8.313,6.742-15.051,15.051-15.051C356.968,132.982,363.701,139.72,363.701,148.033z"/>
			<path fill="#1D1D1B" d="M419.818,149.343c0,8.326-6.733,15.06-15.06,15.06c-8.317,0-15.052-6.733-15.052-15.06
				c0-8.313,6.734-15.051,15.052-15.051C413.085,134.292,419.818,141.03,419.818,149.343z"/>
			<path fill="#1D1D1B" d="M308.206,218.447c0,8.326-6.733,15.063-15.059,15.063c-8.31,0-15.052-6.738-15.052-15.063
				c0-8.313,6.742-15.051,15.052-15.051C301.473,203.396,308.206,210.133,308.206,218.447z"/>
			<path fill="#1D1D1B" d="M251.521,218.447c0,8.326-6.733,15.063-15.06,15.063c-8.313,0-15.051-6.738-15.051-15.063
				c0-8.313,6.738-15.051,15.051-15.051C244.788,203.396,251.521,210.133,251.521,218.447z"/>
			<path fill="#1D1D1B" d="M362.599,218.447c0,8.326-6.733,15.063-15.06,15.063c-8.317,0-15.052-6.738-15.052-15.063
				c0-8.313,6.734-15.051,15.052-15.051C355.865,203.396,362.599,210.133,362.599,218.447z"/>
			<path fill="#1D1D1B" d="M333.591,273.398c0,8.326-6.734,15.06-15.06,15.06c-8.317,0-15.052-6.733-15.052-15.06
				c0-8.31,6.734-15.052,15.052-15.052C326.856,258.347,333.591,265.089,333.591,273.398z"/>
			<path fill="#1D1D1B" d="M278.096,273.398c0,8.326-6.733,15.06-15.06,15.06c-8.313,0-15.051-6.733-15.051-15.06
				c0-8.31,6.738-15.052,15.051-15.052C271.362,258.347,278.096,265.089,278.096,273.398z"/>
		</g>
	</g>
</g>
</svg>
